{"title":"The A-Team 2010 DVDSCR.Xvid LKRG","uid":5684145,"size":760124211,"categoryP":"video","categoryS":"movies","magnet":"?xt=urn:btih:558797511352ceaa48bd9509b4f365266df17a5a&amp;dn=The+A-Team+2010+DVDSCR.Xvid+LKRG&amp;tr=udp%3A%2F%2Ftracker.openbittorrent.com%3A80&amp;tr=udp%3A%2F%2Fopen.demonii.com%3A1337&amp;tr=udp%3A%2F%2Ftracker.coppersurfer.tk%3A6969&amp;tr=udp%3A%2F%2Fexodus.desync.com%3A6969","seeders":0,"leechers":0,"uploader":null,"files":8,"time":1278891205,"description":"=====================================================================================\n                                 The A-Team 2010\n=====================================================================================\n\n\nA group of Iraq War veterans looks to clear their name with the U.S. military, who suspect the four men of committing a \n\ncrime for which they were framed.\n  &lt;a href=&quot;\nhttp://www.imdb.com/title/tt0429493/&quot; rel=&quot;nofollow&quot; target=&quot;_NEW&quot;&gt;\nhttp://www.imdb.com/title/tt0429493/&lt;/a&gt;\n\nIMDB Rating.......:7.6/10                        \nVideo Codec.......:XVID                                         \nRelease Date......:06/11/10\nAudio Codec.......:MP3                                          \nTheatre Date......:06/11/10\nAudio Bitrate.....:128                                          \nSubtitles.........:Spanish,Frencah,Portuguese                                      Resolution........:704 x 304                                    \nIMDb URL..........:http://www.imdb.com/title/tt0429493/\n\n\nDETAILS:\n\nVideo\nFormat                           : MPEG-4 Visual\nFormat profile                   : Streaming Video@L1\nFormat settings, BVOP            : Yes\nFormat settings, QPel            : No\nFormat settings, GMC             : No warppoints\nFormat settings, Matrix          : Default\nCodec ID                         : XVID\nCodec ID/Hint                    : XviD\nBit rate                         : 1 687 Kbps\nWidth                            : 704 pixels\nHeight                           : 304 pixels\nDisplay aspect ratio             : 2.35\nFrame rate                       : 25.000 fps\nResolution                       : 24 bits\nColorimetry                      : 4:2:0\nScan type                        : Progressive\nBits/(Pixel*Frame)               : 0.315\nStream size                      : 1.27 GiB (92%)\nWriting library                  : XviD 50\n\nAudio\nFormat                           : MPEG Audio\nFormat version                   : Version 1\nFormat profile                   : Layer 3\nCodec ID                         : 55\nCodec ID/Hint                    : MP3\nBit rate mode                    : Constant\nBit rate                         : 128 Kbps\nMinimum bit rate                 : 128 Kbps\nChannel(s)                       : 2 channels\nSampling rate                    : 44.1 KHz\nResolution                       : 16 bits\nStream size                      : 98.5 MiB (7%)\nAlignment                        : Split accross interleaves\nInterleave, duration             : 40 ms (1.00 video frame)\nInterleave, preload duration     : 500 ms\n","torrent":{"xt":"urn:btih:558797511352ceaa48bd9509b4f365266df17a5a","amp;dn":"The+A-Team+2010+DVDSCR.Xvid+LKRG","amp;tr":["udp%3A%2F%2Ftracker.openbittorrent.com%3A80","udp%3A%2F%2Fopen.demonii.com%3A1337","udp%3A%2F%2Ftracker.coppersurfer.tk%3A6969","udp%3A%2F%2Fexodus.desync.com%3A6969"],"infoHash":"558797511352ceaa48bd9509b4f365266df17a5a","infoHashBuffer":{"type":"Buffer","data":[85,135,151,81,19,82,206,170,72,189,149,9,180,243,101,38,109,241,122,90]},"announce":[],"urlList":[]}}